<svg id="noun_delivery_3337684" xmlns="http://www.w3.org/2000/svg" width="36.746" height="19.598" viewBox="0 0 36.746 19.598">
                    <path id="Tracé_33" data-name="Tracé 33" d="M10.612,14.677H24.7L21.269,12.1a.612.612,0,1,1,.735-.98L26.9,14.8h0a.12.12,0,0,1,.122.122.12.12,0,0,0,.122.122h0v.367h0a.263.263,0,0,1-.245.245h0L22,19.331a.45.45,0,0,1-.367.122.636.636,0,0,1-.49-.245.605.605,0,0,1,.122-.857L24.7,15.9H10.612a.612.612,0,0,1,0-1.225Z" transform="translate(-1.426 -7.327)"></path>
                    <path id="Tracé_34" data-name="Tracé 34" d="M1.612,15.349H4.675V11.675H2.837a.612.612,0,0,1,0-1.225H4.675V8.612A.579.579,0,0,1,5.287,8h21.19a2.719,2.719,0,0,1,2.695,2.695v2.2h3.062c.122,0,.367.122.49.122l4.9,4.9c0,.122.122.367.122.49v4.9a.579.579,0,0,1-.612.612H35.3a3.675,3.675,0,0,1-7.349,0H15.7A3.609,3.609,0,0,1,12.024,27.6a3.609,3.609,0,0,1-3.675-3.675H5.287a.579.579,0,0,1-.612-.612V20.249H2.837a.612.612,0,0,1,0-1.225H4.675v-2.45H1.612a.612.612,0,0,1,0-1.225ZM36.521,22.7V18.656l-4.532-4.532H29.172v7.1h.122c.122-.122.245-.122.245-.245.122,0,.122-.122.245-.122a.45.45,0,0,1,.367-.122c.122,0,.122-.122.245-.122s.245-.122.367-.122h.245c.122-.245.367-.245.612-.245h.857a.45.45,0,0,1,.367.122c.122,0,.122,0,.245.122.122,0,.245.122.367.122s.122.122.245.122c.122.122.245.122.245.245a.12.12,0,0,1,.122.122c0,.122.122.245.245.367l.122.122c.122.122.122.245.245.245a.428.428,0,0,1,.122.245.45.45,0,0,1,.122.367c0,.122,0,.122.122.245v.122h1.47Zm-4.9,3.675a2.457,2.457,0,0,0,2.45-2.45v-.49a2.5,2.5,0,0,0-2.45-1.96h-.367a2.484,2.484,0,0,0-1.96,1.96v.49A2.283,2.283,0,0,0,31.621,26.373Zm-19.6,0a2.457,2.457,0,0,0,2.45-2.45v-.49a2.5,2.5,0,0,0-2.45-1.96h-.367a2.484,2.484,0,0,0-1.96,1.96v.49A2.283,2.283,0,0,0,12.024,26.373ZM5.9,19.024H7.737a.612.612,0,0,1,0,1.225H5.9V22.7H8.594c0-.122.122-.122.122-.245s.122-.245.122-.367.122-.122.122-.245l.245-.245c0-.122.122-.122.122-.245l.245-.245c.122,0,.122-.122.245-.122l.245-.245c.122,0,.122-.122.245-.122s.245-.122.367-.122.122-.122.245-.122.245-.122.367-.122H13a.45.45,0,0,1,.367.122c.122,0,.122,0,.245.122.122,0,.245.122.367.122s.122.122.245.122c.122.122.245.122.245.245.122,0,.122.122.245.122l.245.245.122.122c.122.122.122.245.245.245,0,.122.122.122.122.245a.45.45,0,0,1,.122.367c0,.122.122.122.122.245V22.7H27.947v-12a1.415,1.415,0,0,0-1.47-1.47H5.9V10.45H7.737a.612.612,0,0,1,0,1.225H5.9v3.675H7.737a.612.612,0,0,1,0,1.225H5.9Z" transform="translate(-1 -8)"></path>
                </svg>