<svg xmlns="http://www.w3.org/2000/svg" width="32" height="31.999" viewBox="0 0 32 31.999">
                    <g id="noun_chatting_2570220" transform="translate(-1.058 -272.658)">
                        <path id="Tracé_35" data-name="Tracé 35" d="M19.045,279.008a11.636,11.636,0,1,0,6.2,21.444l4.441,1.776a.727.727,0,0,0,.945-.945l-1.772-4.43a11.6,11.6,0,0,0-9.812-17.846Zm0,1.455a10.181,10.181,0,0,1,8.407,15.925.727.727,0,0,0-.075.68l1.272,3.18-3.192-1.277a.727.727,0,0,0-.68.075,10.177,10.177,0,1,1-5.731-18.584Z" transform="translate(2.377 2.377)"></path>
                        <path id="Tracé_36" data-name="Tracé 36" d="M12.694,1.058A11.631,11.631,0,0,0,8.506,23.542a13.04,13.04,0,0,1-.165-1.691A10.152,10.152,0,0,1,12.694,2.514h0a10.123,10.123,0,0,1,9.158,5.829,13.047,13.047,0,0,1,1.691.165A11.644,11.644,0,0,0,12.694,1.058Z" transform="translate(0 271.6)"></path>
                        <path id="Tracé_37" data-name="Tracé 37" d="M16.8,287.673a.727.727,0,1,1-.727-.727.727.727,0,0,1,.727.727Z" transform="translate(5.349 5.349)"></path>
                        <path id="Tracé_38" data-name="Tracé 38" d="M13.625,287.673a.727.727,0,1,1-.727-.727.727.727,0,0,1,.727.727Z" transform="translate(4.16 5.349)"></path>
                        <path id="Tracé_39" data-name="Tracé 39" d="M19.975,287.673a.727.727,0,1,1-.727-.727.727.727,0,0,1,.727.727Z" transform="translate(6.537 5.349)"></path>
                    </g>
                </svg>