<svg xmlns="http://www.w3.org/2000/svg" width="16.823" height="19.36" viewBox="0 0 16.823 19.36">
              <g id="Calque_2" data-name="Calque 2" transform="translate(-21.7 -17.32)">
                  <path id="Tracé_15" data-name="Tracé 15" d="M37.733,27.626a5,5,0,1,0-5-5A5,5,0,0,0,37.733,27.626Zm0-8.847a3.844,3.844,0,1,1-3.844,3.844A3.844,3.844,0,0,1,37.733,18.779Z" transform="translate(-7.622)" stroke="#000000" stroke-width="0.6"></path>
                  <path id="Tracé_16" data-name="Tracé 16" d="M30.111,56.31C25.636,56.31,22,59.439,22,63.283a.579.579,0,0,0,1.159,0h0c0-3.207,3.123-5.814,6.953-5.814s6.953,2.607,6.953,5.814h0a.579.579,0,0,0,1.159,0C38.223,59.439,34.587,56.31,30.111,56.31Z" transform="translate(0 -27.482)" stroke="#000000" stroke-width="0.6"></path>
              </g>
          </svg>