<svg xmlns="http://www.w3.org/2000/svg" width="29.98" height="37.702" viewBox="0 0 29.98 37.702">
                    <g id="noun_secure_1360521" transform="translate(-17 -8.5)">
                        <path id="Tracé_40" data-name="Tracé 40" d="M31.99,8.5a9.539,9.539,0,0,0-9.539,9.539v4.542H17V46.2H46.98V22.582H41.529V18.039A9.539,9.539,0,0,0,31.99,8.5ZM46.072,23.49v21.8H17.908V23.49Zm-22.712-.908V18.039a8.631,8.631,0,0,1,17.261,0v4.542Z"></path>
                        <path id="Tracé_41" data-name="Tracé 41" d="M45.088,64.676A4.088,4.088,0,1,0,41,60.588a4.088,4.088,0,0,0,4.088,4.088Zm0-7.268a3.18,3.18,0,1,1-3.18,3.18,3.18,3.18,0,0,1,3.18-3.18Z" transform="translate(-13.098 -26.196)"></path>
                    </g>
                </svg>