<svg xmlns="http://www.w3.org/2000/svg" width="31.254" height="30.696" viewBox="0 0 31.254 30.696">
                        <path id="Tracé_42" data-name="Tracé 42" d="M6.945,2.813a.4.4,0,0,0-.39.366S6.5,3.8,6.356,4.5a4.666,4.666,0,0,1-.625,1.7,4.848,4.848,0,0,1-1.716.653c-.713.154-1.344.224-1.344.224a.4.4,0,0,0,0,.8s.619.065,1.32.215a4.74,4.74,0,0,1,1.7.643,4.824,4.824,0,0,1,.661,1.7c.157.7.23,1.328.23,1.328a.4.4,0,0,0,.8,0s.074-.623.233-1.329a4.893,4.893,0,0,1,.663-1.708,4.7,4.7,0,0,1,1.682-.653c.7-.153,1.308-.221,1.308-.221a.4.4,0,0,0-.006-.8s-.63-.062-1.343-.208A4.785,4.785,0,0,1,8.2,6.212a4.707,4.707,0,0,1-.636-1.7c-.147-.708-.208-1.333-.208-1.333a.4.4,0,0,0-.411-.363ZM6.962,5.4a3.018,3.018,0,0,0,.671,1.386,3.164,3.164,0,0,0,1.481.691A3.124,3.124,0,0,0,7.7,8.163,3.359,3.359,0,0,0,6.98,9.7a3.313,3.313,0,0,0-.724-1.531,3.165,3.165,0,0,0-1.449-.69,3.221,3.221,0,0,0,1.5-.708A2.986,2.986,0,0,0,6.962,5.4Zm12.951.171a.4.4,0,0,0-.39.366s-.179,1.968-.629,4.206-1.229,4.752-2.171,5.7-3.483,1.769-5.748,2.259-4.262.708-4.262.708a.4.4,0,0,0,0,.8s1.959.205,4.187.681,4.733,1.28,5.684,2.225,1.78,3.46,2.28,5.7.727,4.209.727,4.209a.4.4,0,0,0,.8,0s.233-1.971.738-4.213,1.336-4.761,2.283-5.713,3.431-1.767,5.64-2.255,4.151-.7,4.151-.7a.4.4,0,0,0,0-.8s-1.994-.194-4.258-.66-4.8-1.261-5.751-2.2-1.743-3.465-2.208-5.713-.658-4.229-.658-4.229a.4.4,0,0,0-.412-.363Zm.019,3.218c.086.52.141.952.262,1.538.475,2.3,1.17,4.868,2.429,6.121s3.845,1.946,6.156,2.421c.653.135,1.149.2,1.717.291-.539.1-1,.161-1.617.3-2.258.5-4.79,1.219-6.038,2.473s-1.983,3.816-2.5,6.1c-.158.7-.242,1.243-.349,1.842-.105-.6-.187-1.138-.343-1.837-.51-2.286-1.242-4.845-2.5-6.094S13.347,19.985,11.07,19.5c-.64-.136-1.124-.2-1.681-.3.579-.1,1.088-.172,1.755-.317,2.312-.5,4.9-1.22,6.149-2.479s1.931-3.822,2.39-6.109c.116-.576.166-1,.248-1.513ZM9.642,24.2a.4.4,0,0,0-.39.366s-.057.622-.2,1.326a4.662,4.662,0,0,1-.626,1.7,4.847,4.847,0,0,1-1.716.654c-.713.154-1.345.223-1.345.223a.4.4,0,0,0,0,.8s.619.065,1.32.215a4.74,4.74,0,0,1,1.7.643,4.818,4.818,0,0,1,.661,1.7c.157.7.229,1.327.229,1.327a.4.4,0,0,0,.8,0s.073-.623.232-1.329a4.895,4.895,0,0,1,.663-1.708,4.7,4.7,0,0,1,1.682-.652c.7-.153,1.309-.222,1.309-.222a.4.4,0,0,0-.006-.8s-.63-.061-1.343-.208A4.784,4.784,0,0,1,10.9,27.6a4.711,4.711,0,0,1-.637-1.7c-.147-.708-.207-1.334-.207-1.334a.4.4,0,0,0-.412-.363Zm.017,2.584a3.018,3.018,0,0,0,.671,1.387,3.161,3.161,0,0,0,1.482.69,3.125,3.125,0,0,0-1.412.689,3.359,3.359,0,0,0-.723,1.534,3.31,3.31,0,0,0-.724-1.53A3.164,3.164,0,0,0,7.5,28.861,3.226,3.226,0,0,0,9,28.154a2.991,2.991,0,0,0,.66-1.374Z" transform="translate(-2.311 -2.813)"></path>
                    </svg>