<svg xmlns="http://www.w3.org/2000/svg" width="19.071" height="17.322" viewBox="0 0 19.071 17.322">
        <path id="Tracé_14" data-name="Tracé 14" d="M9.035,20.578a.46.46,0,0,0,.342-.159l6.782-6.952a4.594,4.594,0,0,0,1.329-3.343,4.594,4.594,0,0,0-1.329-3.343,4.335,4.335,0,0,0-3.234-1.359A4.375,4.375,0,0,0,9.657,6.781c-.037.038-.174.2-.4.474a.292.292,0,0,1-.456,0,6.319,6.319,0,0,0-.426-.47A4.335,4.335,0,0,0,5.145,5.422,4.335,4.335,0,0,0,1.912,6.781,4.594,4.594,0,0,0,.583,10.124a4.594,4.594,0,0,0,1.329,3.343l6.782,6.952A.46.46,0,0,0,9.035,20.578Zm.2-14.2a4.957,4.957,0,0,1,3.686-1.535,4.918,4.918,0,0,1,3.651,1.535,5.176,5.176,0,0,1,1.494,3.75,5.177,5.177,0,0,1-1.494,3.75L9.795,20.826a1.029,1.029,0,0,1-1.519,0L1.494,13.874A5.177,5.177,0,0,1,0,10.124a5.176,5.176,0,0,1,1.494-3.75A4.918,4.918,0,0,1,5.145,4.839,4.918,4.918,0,0,1,8.8,6.374q.131.134.233.245C9.136,6.49,9.2,6.41,9.24,6.374Z" transform="translate(0.5 -4.339)" stroke="#000000" stroke-width="1"></path>
    </svg>